<?xml version="1.0"?>
<svg width="700" height="400" xmlns="http://www.w3.org/2000/svg" xmlns:svg="http://www.w3.org/2000/svg" version="1.1">

 <g class="layer">
  <title>Layer 1</title>
  <g id="svg_25">
   <path d="m597.53,219.86l98.03,-98.03c3.92,-3.92 3.92,-10.98 0,-14.9l-98.03,-98.81c-3.92,-3.92 -10.98,-3.92 -14.9,0l-98.03,98.81c-3.92,3.92 -3.92,10.98 0,14.9l26.66,26.66c6.27,6.27 6.27,16.47 0,22.74l-24.31,24.31c-6.27,6.27 -16.47,6.27 -22.73,0l-26.66,-26.66c-3.92,-3.92 -10.98,-3.92 -14.9,0l-26.66,26.66c-6.27,6.27 -16.48,6.27 -22.74,0l-23.54,-25.1c-6.27,-6.27 -6.27,-16.47 0,-22.74l26.66,-26.66c3.92,-3.92 3.92,-10.98 0,-14.9l-98.03,-98.03c-3.92,-3.92 -10.98,-3.92 -14.9,0l-98.81,98.81c-3.92,3.92 -3.92,10.98 0,14.9l26.66,26.66c6.27,6.27 6.27,16.47 0,22.74l-24.31,24.31c-6.27,6.27 -16.47,6.27 -22.74,0l-26.65,-26.66c-3.94,-3.92 -10.98,-3.92 -14.91,0l-97.24,97.24c-3.92,3.92 -3.92,10.98 0,14.9l98.03,98.03c3.92,3.92 10.98,3.92 14.9,0l98.03,-98.03c3.92,-3.92 3.92,-10.98 0,-14.9l-26.66,-26.66c-6.27,-6.27 -6.27,-16.47 0,-22.74l24.31,-24.31c6.27,-6.27 16.48,-6.27 22.74,0l26.66,26.66c3.92,3.92 10.98,3.92 14.9,0l26.66,-26.66c6.27,-6.27 16.47,-6.27 22.74,0l24.31,24.31c6.27,6.27 6.27,16.47 0,22.74l-26.66,26.66c-3.92,3.92 -3.92,10.98 0,14.9l98.03,98.03c3.92,3.92 10.98,3.92 14.9,0l98.03,-98.03c3.92,-3.92 3.92,-10.98 0,-14.9l-26.66,-26.66c-6.27,-6.27 -6.27,-16.47 0,-22.74l24.31,-24.31c6.27,-6.27 16.47,-6.27 22.74,0l26.66,26.66c3.92,4.71 10.19,4.71 14.12,0.78zm-452.5,88.62c-18.82,18.82 -49.41,18.82 -69.01,0c-18.82,-18.82 -18.82,-49.41 0,-69.01c18.82,-18.82 49.41,-18.82 69.01,0c18.82,18.82 18.82,50.19 0,69.01zm90.97,-228.99c18.82,-18.82 49.41,-18.82 69.01,0c18.82,18.82 18.82,49.41 0,69.01c-18.82,18.82 -49.41,18.82 -69.01,0c-18.82,-18.82 -18.82,-50.19 0,-69.01zm228.99,228.99c-18.82,18.82 -49.41,18.82 -69.01,0c-18.84,-18.82 -18.84,-49.41 0,-69.01c18.82,-18.82 49.41,-18.82 69.01,0c18.81,18.82 18.81,50.19 0,69.01zm159.98,-228.99c18.82,18.82 18.82,49.41 0,69.01c-18.82,18.82 -49.41,18.82 -69.01,0c-18.84,-18.82 -18.84,-49.41 0,-69.01c18.82,-18.82 49.41,-18.82 69.01,0z" id="svg_26"/>
  </g>
 </g>
</svg>