<svg width="221" height="36" xmlns="http://www.w3.org/2000/svg" xmlns:xlink="http://www.w3.org/1999/xlink" overflow="hidden"><defs><clipPath id="clip0"><rect x="344" y="304" width="221" height="36"/></clipPath></defs><g clip-path="url(#clip0)" transform="translate(-344 -304)"><path d="M398 304C401.288 304.016 404.125 304.731 406.511 306.144 408.897 307.556 410.738 309.568 412.033 312.179 413.329 314.79 413.984 317.901 414 321.512 413.984 325.115 413.329 328.221 412.033 330.828 410.738 333.436 408.897 335.445 406.511 336.857 404.125 338.269 401.288 338.983 398 339 394.705 338.983 391.865 338.269 389.479 336.857 387.093 335.445 385.254 333.436 383.962 330.828 382.669 328.221 382.015 325.115 382 321.512 382.015 317.901 382.669 314.79 383.962 312.179 385.254 309.568 387.093 307.556 389.479 306.144 391.865 304.731 394.705 304.016 398 304ZM398 309.908C396.182 309.919 394.607 310.396 393.276 311.337 391.945 312.279 390.916 313.615 390.187 315.346 389.459 317.077 389.09 319.132 389.08 321.512 389.112 325.091 389.917 327.902 391.497 329.945 393.077 331.989 395.245 333.03 398 333.069 400.744 333.03 402.905 331.989 404.483 329.945 406.06 327.902 406.865 325.091 406.897 321.512 406.887 319.132 406.52 317.077 405.796 315.346 405.071 313.615 404.045 312.279 402.718 311.337 401.39 310.396 399.818 309.919 398 309.908Z" fill-rule="evenodd"/><path d="M431 304C434.288 304.016 437.125 304.731 439.511 306.144 441.897 307.556 443.738 309.568 445.033 312.179 446.329 314.79 446.984 317.901 447 321.512 446.984 325.115 446.329 328.221 445.033 330.828 443.738 333.436 441.897 335.445 439.511 336.857 437.125 338.269 434.288 338.983 431 339 427.705 338.983 424.865 338.269 422.479 336.857 420.093 335.445 418.254 333.436 416.962 330.828 415.669 328.221 415.015 325.115 415 321.512 415.015 317.901 415.669 314.79 416.962 312.179 418.254 309.568 420.093 307.556 422.479 306.144 424.865 304.731 427.705 304.016 431 304ZM431 309.908C429.182 309.919 427.607 310.396 426.276 311.337 424.945 312.279 423.916 313.615 423.187 315.346 422.459 317.077 422.09 319.132 422.081 321.512 422.112 325.091 422.917 327.902 424.497 329.945 426.077 331.989 428.245 333.03 431 333.069 433.744 333.03 435.905 331.989 437.483 329.945 439.06 327.902 439.865 325.091 439.897 321.512 439.887 319.132 439.52 317.077 438.796 315.346 438.071 313.615 437.045 312.279 435.718 311.337 434.39 310.396 432.818 309.919 431 309.908Z" fill-rule="evenodd"/><path d="M548.976 304C551.603 304.015 553.961 304.503 556.049 305.463 558.137 306.423 559.847 307.763 561.176 309.484 562.506 311.204 563.347 313.213 563.698 315.51L556.662 315.51C556.132 313.726 555.201 312.342 553.867 311.358 552.533 310.374 550.911 309.875 548.999 309.861 546.213 309.888 544.047 310.895 542.503 312.882 540.959 314.869 540.175 317.675 540.152 321.301 540.183 325.003 541.004 327.89 542.614 329.96 544.224 332.03 546.437 333.082 549.255 333.116 551.576 333.085 553.447 332.437 554.865 331.173 556.284 329.909 557.046 328.212 557.15 326.083L557.173 325.544 549.882 325.544 549.882 320.386 564 320.386 564 324.208C563.989 327.291 563.396 329.934 562.221 332.137 561.046 334.341 559.353 336.033 557.14 337.212 554.928 338.392 552.261 338.988 549.139 339 545.789 338.986 542.911 338.279 540.506 336.879 538.102 335.479 536.253 333.467 534.96 330.845 533.667 328.223 533.014 325.073 533 321.394 533.015 317.77 533.666 314.662 534.954 312.071 536.242 309.48 538.077 307.491 540.458 306.103 542.84 304.715 545.679 304.014 548.976 304Z" fill-rule="evenodd"/><path d="M344 305 352.246 305 361.906 329.104 362.094 329.104 371.754 305 380 305 380 339 373.662 339 373.662 316.051 373.474 316.051 364.238 338.67 359.762 338.67 350.526 316.051 350.338 316.051 350.338 339 344 339 344 305Z" fill-rule="evenodd"/><path d="M448 305 453.975 305 469.957 327.148 470.147 327.148 470.147 305 477 305 477 339 471.072 339 455.066 316.734 454.853 316.734 454.853 339 448 339 448 305Z" fill-rule="evenodd"/><path d="M479 305 493.9 305C497.149 305.028 499.696 305.791 501.542 307.288 503.389 308.786 504.329 310.851 504.363 313.482 504.351 314.735 504.064 315.884 503.503 316.928 502.941 317.973 502.178 318.841 501.214 319.532 500.249 320.223 499.155 320.665 497.933 320.857L497.933 321.046C499.497 321.175 500.883 321.605 502.091 322.335 503.3 323.065 504.25 324.025 504.942 325.215 505.634 326.406 505.987 327.757 506 329.269 505.963 332.293 504.904 334.663 502.821 336.379 500.738 338.095 497.851 338.969 494.161 339L479 339 479 305ZM486.165 310.301 486.165 319.137 491.314 319.137C493.235 319.127 494.713 318.729 495.747 317.941 496.782 317.154 497.305 316.037 497.316 314.59 497.306 313.215 496.846 312.159 495.937 311.421 495.028 310.682 493.732 310.309 492.049 310.301L486.165 310.301ZM486.165 323.826 486.165 333.699 492.334 333.699C494.405 333.694 495.981 333.268 497.061 332.42 498.142 331.573 498.686 330.334 498.692 328.703 498.685 327.109 498.125 325.898 497.014 325.072 495.903 324.246 494.287 323.83 492.168 323.826L486.165 323.826Z" fill-rule="evenodd"/><path d="M515.806 305 524.171 305 536 339 528.436 339 525.844 330.753 513.897 330.753 511.305 339 504 339 515.806 305ZM519.788 311.503 515.429 325.428 524.312 325.428 519.953 311.503 519.788 311.503Z" fill-rule="evenodd"/></g></svg>